<svg width="250" height="40" viewBox="0 0 250 40" fill="none" xmlns="http://www.w3.org/2000/svg">
    <g clip-path="url(#clip0_5677_34978)">
        <path d="M161.513 1.98584H158.664V10.7594H157.243V1.98584H154.4V0.610107H161.513V1.98584Z" fill="#e7d0a5"/>
        <path d="M160.421 7.13817C160.4 6.63464 160.481 6.13206 160.659 5.66066C160.838 5.18925 161.109 4.75876 161.458 4.39505C161.807 4.03135 162.226 3.74194 162.69 3.54424C163.153 3.34654 163.652 3.24463 164.156 3.24463C164.66 3.24463 165.159 3.34654 165.622 3.54424C166.086 3.74194 166.504 4.03135 166.853 4.39505C167.202 4.75876 167.474 5.18925 167.652 5.66066C167.83 6.13206 167.911 6.63464 167.89 7.13817V10.7657H166.469V9.61708C166.233 10.0108 165.896 10.3348 165.494 10.5559C165.091 10.7771 164.638 10.8875 164.179 10.876C163.686 10.8777 163.198 10.7823 162.743 10.5953C162.288 10.4083 161.874 10.1334 161.525 9.78621C161.176 9.43903 160.899 9.02645 160.709 8.57207C160.52 8.11769 160.422 7.63043 160.421 7.13817ZM166.482 7.13817C166.494 6.82953 166.442 6.52178 166.331 6.23353C166.221 5.94528 166.052 5.68251 165.837 5.4611C165.622 5.2397 165.364 5.06427 165.079 4.94541C164.794 4.82655 164.487 4.76674 164.179 4.76958C163.868 4.76599 163.56 4.82505 163.273 4.94322C162.986 5.0614 162.725 5.23626 162.507 5.45737C162.289 5.67847 162.118 5.94127 162.003 6.23007C161.889 6.51886 161.834 6.82772 161.842 7.13817C161.826 7.45315 161.873 7.76822 161.982 8.06418C162.091 8.36015 162.26 8.6308 162.477 8.85965C162.694 9.0885 162.955 9.27076 163.245 9.3953C163.535 9.51985 163.847 9.58408 164.162 9.58408C164.478 9.58408 164.79 9.51985 165.08 9.3953C165.369 9.27076 165.631 9.0885 165.848 8.85965C166.065 8.6308 166.233 8.36015 166.342 8.06418C166.451 7.76822 166.499 7.45315 166.482 7.13817Z" fill="#e7d0a5"/>
        <path d="M170.909 0.610107H169.488V10.7594H170.909V0.610107Z" fill="#e7d0a5"/>
        <path d="M174.07 0.610107H172.648V10.7594H174.07V0.610107Z" fill="#e7d0a5"/>
        <path d="M175.809 1.63529C175.808 1.5203 175.83 1.4063 175.874 1.29998C175.918 1.19366 175.982 1.09716 176.064 1.01615C176.145 0.935143 176.242 0.871261 176.349 0.828256C176.456 0.785251 176.57 0.76399 176.685 0.765723C176.798 0.765693 176.91 0.78831 177.015 0.832243C177.119 0.876177 177.214 0.940541 177.293 1.02155C177.372 1.10257 177.434 1.19859 177.476 1.30399C177.517 1.40938 177.537 1.52202 177.535 1.63529C177.537 1.74886 177.517 1.86181 177.476 1.96757C177.434 2.07333 177.372 2.16977 177.293 2.2513C177.214 2.33283 177.12 2.39781 177.015 2.44245C176.911 2.48709 176.798 2.51051 176.685 2.51134C176.569 2.51309 176.455 2.49163 176.347 2.44822C176.24 2.40482 176.143 2.34035 176.061 2.25865C175.98 2.17695 175.915 2.07968 175.872 1.9726C175.828 1.86552 175.807 1.75082 175.809 1.63529ZM175.971 3.51069H177.392V10.7592H175.971V3.51069Z" fill="#e7d0a5"/>
        <path d="M185.508 10.7591H184.087V6.94344C184.087 5.46388 183.438 4.76953 182.322 4.76953C181.206 4.76953 180.551 5.46388 180.551 6.94344V10.7591H179.104V6.94344C179.104 4.5424 180.466 3.3938 182.348 3.3938C184.23 3.3938 185.534 4.50996 185.534 6.94344L185.508 10.7591Z" fill="#e7d0a5"/>
        <path d="M193.492 10.7591H192.083V6.94344C192.083 5.46388 191.435 4.76953 190.312 4.76953C189.189 4.76953 188.54 5.46388 188.54 6.94344V10.7591H187.119V6.94344C187.119 4.50996 188.456 3.3938 190.312 3.3938C192.168 3.3938 193.505 4.50996 193.505 6.94344L193.492 10.7591Z" fill="#e7d0a5"/>
        <path d="M206.107 7.83269C206.107 9.70161 204.588 10.8762 202.7 10.8762C202.26 10.8982 201.821 10.8305 201.408 10.6774C200.996 10.5242 200.619 10.2887 200.3 9.98515C199.981 9.68164 199.728 9.31647 199.555 8.91185C199.381 8.50723 199.292 8.07162 199.293 7.63152H200.714C200.711 7.89083 200.762 8.14791 200.866 8.38571C200.969 8.62351 201.122 8.8366 201.314 9.01086C201.506 9.18512 201.733 9.31658 201.98 9.3965C202.227 9.47643 202.488 9.50301 202.745 9.47448C203.861 9.47448 204.692 8.94885 204.692 7.80673C204.692 5.24995 199.617 6.70355 199.617 3.16689C199.617 1.45372 200.85 0.467343 202.661 0.467343C203.064 0.434025 203.47 0.487851 203.851 0.625169C204.232 0.762487 204.578 0.980087 204.868 1.26321C205.157 1.54633 205.382 1.88835 205.528 2.26608C205.673 2.6438 205.736 3.0484 205.711 3.45242H204.283C204.303 3.23553 204.274 3.01693 204.199 2.81263C204.123 2.60832 204.003 2.42349 203.847 2.27168C203.691 2.11986 203.503 2.00491 203.296 1.93524C203.09 1.86557 202.871 1.84295 202.654 1.86903C201.668 1.86903 201.032 2.40764 201.032 3.2188C201.032 5.62633 206.107 3.97156 206.107 7.83269Z" fill="#e7d0a5"/>
        <path d="M207.41 7.13827C207.409 6.64662 207.506 6.15965 207.694 5.70535C207.882 5.25104 208.157 4.83836 208.505 4.49101C208.853 4.14367 209.266 3.86851 209.721 3.68135C210.176 3.49419 210.663 3.39872 211.155 3.40044C211.906 3.39673 212.641 3.62457 213.258 4.05299C213.876 4.48141 214.347 5.08963 214.607 5.79498H213.082C212.874 5.47818 212.589 5.2188 212.255 5.04075C211.92 4.86271 211.546 4.77172 211.167 4.77617C210.858 4.7735 210.551 4.83298 210.264 4.95107C209.978 5.06916 209.718 5.24347 209.5 5.46369C209.283 5.68392 209.111 5.94558 208.996 6.23321C208.881 6.52084 208.825 6.82859 208.831 7.13827C208.825 7.44825 208.881 7.75631 208.996 8.04429C209.111 8.33227 209.282 8.59435 209.5 8.81509C209.718 9.03583 209.977 9.21075 210.264 9.32956C210.55 9.44837 210.857 9.50865 211.167 9.50686C211.539 9.50996 211.906 9.4216 212.235 9.24959C212.564 9.07757 212.846 8.82718 213.056 8.52049H214.607C214.341 9.21924 213.868 9.81999 213.251 10.2422C212.634 10.6644 211.902 10.8878 211.155 10.8826C210.662 10.8843 210.175 10.7886 209.72 10.6011C209.265 10.4135 208.851 10.1378 208.503 9.78973C208.155 9.44169 207.879 9.02824 207.692 8.57318C207.504 8.11813 207.408 7.63046 207.41 7.13827Z" fill="#e7d0a5"/>
        <path d="M222.381 6.94366V10.7594H220.96V6.94366C220.96 5.4641 220.311 4.76974 219.188 4.76974C218.066 4.76974 217.423 5.4641 217.423 6.9177V10.7594H216.002V0.610107H217.423V4.15975C217.634 3.89961 217.905 3.69418 218.212 3.56088C218.519 3.42758 218.854 3.37034 219.188 3.39401C221.044 3.39401 222.381 4.51017 222.381 6.94366Z" fill="#e7d0a5"/>
        <path d="M231.246 7.13825C231.248 7.87908 231.029 8.60364 230.619 9.22025C230.208 9.83685 229.624 10.3178 228.94 10.6022C228.255 10.8866 227.502 10.9616 226.776 10.8179C226.049 10.6742 225.381 10.3181 224.857 9.79467C224.333 9.27127 223.975 8.60411 223.83 7.87761C223.685 7.1511 223.759 6.39791 224.042 5.71335C224.325 5.02878 224.805 4.44362 225.421 4.0319C226.037 3.62018 226.761 3.40041 227.502 3.40041C227.994 3.3987 228.481 3.49417 228.936 3.68133C229.39 3.86848 229.803 4.14364 230.151 4.49099C230.499 4.83833 230.775 5.25102 230.963 5.70532C231.151 6.15963 231.247 6.6466 231.246 7.13825ZM225.179 7.13825C225.173 7.44823 225.229 7.75628 225.344 8.04427C225.459 8.33225 225.63 8.59433 225.848 8.81507C226.065 9.03581 226.325 9.21073 226.611 9.32954C226.898 9.44835 227.205 9.50863 227.515 9.50684C227.824 9.50873 228.13 9.44832 228.415 9.32922C228.7 9.21011 228.958 9.03476 229.174 8.81364C229.389 8.59253 229.558 8.33019 229.67 8.04233C229.782 7.75446 229.835 7.44697 229.825 7.13825C229.835 6.82983 229.782 6.52264 229.67 6.23512C229.558 5.94761 229.389 5.68569 229.173 5.46508C228.958 5.24448 228.7 5.06974 228.415 4.95135C228.13 4.83297 227.824 4.77337 227.515 4.77614C227.205 4.77348 226.898 4.83295 226.612 4.95105C226.326 5.06914 226.066 5.24345 225.848 5.46367C225.63 5.6839 225.459 5.94556 225.344 6.23319C225.229 6.52082 225.173 6.82857 225.179 7.13825Z" fill="#e7d0a5"/>
        <path d="M240.032 7.13825C240.033 7.87908 239.814 8.60364 239.404 9.22025C238.993 9.83685 238.409 10.3178 237.725 10.6022C237.041 10.8866 236.288 10.9616 235.561 10.8179C234.834 10.6742 234.166 10.3181 233.642 9.79467C233.118 9.27127 232.76 8.60411 232.615 7.87761C232.47 7.1511 232.544 6.39791 232.827 5.71335C233.111 5.02878 233.59 4.44362 234.206 4.0319C234.822 3.62018 235.546 3.40041 236.287 3.40041C236.779 3.3987 237.266 3.49417 237.721 3.68133C238.175 3.86848 238.588 4.14364 238.936 4.49099C239.284 4.83833 239.56 5.25102 239.748 5.70532C239.936 6.15963 240.032 6.6466 240.032 7.13825ZM233.971 7.13825C233.954 7.45322 234.002 7.7683 234.111 8.06426C234.22 8.36022 234.388 8.63088 234.605 8.85973C234.822 9.08858 235.083 9.27083 235.373 9.39538C235.663 9.51992 235.975 9.58415 236.291 9.58415C236.606 9.58415 236.918 9.51992 237.208 9.39538C237.498 9.27083 237.759 9.08858 237.976 8.85973C238.193 8.63088 238.361 8.36022 238.47 8.06426C238.579 7.7683 238.627 7.45322 238.61 7.13825C238.627 6.82327 238.579 6.5082 238.47 6.21223C238.361 5.91627 238.193 5.64561 237.976 5.41676C237.759 5.18791 237.498 5.00566 237.208 4.88111C236.918 4.75657 236.606 4.69234 236.291 4.69234C235.975 4.69234 235.663 4.75657 235.373 4.88111C235.083 5.00566 234.822 5.18791 234.605 5.41676C234.388 5.64561 234.22 5.91627 234.111 6.21223C234.002 6.5082 233.954 6.82327 233.971 7.13825Z" fill="#e7d0a5"/>
        <path d="M242.829 0.610107H241.408V10.7594H242.829V0.610107Z" fill="#e7d0a5"/>
        <path d="M162.102 21.3173C162.102 22.0571 161.883 22.7802 161.472 23.3955C161.062 24.0108 160.478 24.4908 159.795 24.7747C159.112 25.0587 158.36 25.134 157.634 24.9911C156.908 24.8482 156.241 24.4935 155.717 23.9718C155.192 23.4501 154.834 22.7847 154.688 22.0597C154.541 21.3346 154.612 20.5824 154.893 19.8979C155.173 19.2134 155.65 18.6272 156.263 18.2135C156.876 17.7997 157.598 17.5768 158.338 17.573C158.83 17.5721 159.317 17.6685 159.771 17.8564C160.225 18.0443 160.638 18.3202 160.985 18.6682C161.333 19.0161 161.608 19.4293 161.795 19.8839C161.982 20.3385 162.078 20.8257 162.076 21.3173H162.102ZM156.015 21.3173C155.998 21.6323 156.046 21.9474 156.155 22.2433C156.264 22.5393 156.432 22.81 156.649 23.0388C156.866 23.2677 157.128 23.4499 157.418 23.5745C157.707 23.699 158.019 23.7632 158.335 23.7632C158.65 23.7632 158.962 23.699 159.252 23.5745C159.542 23.4499 159.803 23.2677 160.02 23.0388C160.238 22.81 160.406 22.5393 160.515 22.2433C160.624 21.9474 160.671 21.6323 160.655 21.3173C160.665 21.0092 160.613 20.7022 160.502 20.4147C160.391 20.1272 160.222 19.8652 160.007 19.6445C159.792 19.4238 159.534 19.249 159.25 19.1305C158.965 19.012 158.659 18.9524 158.351 18.9552C158.041 18.9517 157.734 19.0105 157.447 19.1283C157.16 19.2461 156.9 19.4204 156.682 19.6408C156.464 19.8612 156.293 20.1232 156.178 20.4112C156.063 20.6993 156.008 21.0074 156.015 21.3173Z" fill="#e7d0a5"/>
        <path d="M163.991 19.0655H162.881V17.6898H163.997C164.159 15.9052 165.191 14.8215 166.956 14.7437V16.1259C166.549 16.1407 166.162 16.311 165.876 16.6019C165.59 16.8927 165.426 17.282 165.418 17.6898H166.956V19.0655H165.412V24.9448H163.991V19.0655Z" fill="#e7d0a5"/>
        <path d="M182.919 14.7891V24.9448H181.498V17.9818L178.344 24.9448H177.131L173.984 17.9818V24.9448H172.562V14.7891H173.984L177.741 22.8942L181.498 14.7891H182.919Z" fill="#e7d0a5"/>
        <path d="M190.746 17.6897V21.5054C190.746 23.9389 189.416 25.0615 187.56 25.0615C185.704 25.0615 184.367 23.9389 184.367 21.5054V17.6897H185.788V21.5054C185.788 22.985 186.437 23.6793 187.56 23.6793C188.683 23.6793 189.325 22.985 189.325 21.5054V17.6897H190.746Z" fill="#e7d0a5"/>
        <path d="M192.084 22.7644H193.447C193.447 23.4134 194.096 23.7833 194.952 23.7833C195.809 23.7833 196.347 23.3874 196.347 22.8228C196.347 21.1875 192.201 22.4335 192.201 19.6171C192.201 18.4036 193.388 17.573 194.881 17.573C196.373 17.573 197.535 18.3582 197.535 19.7534H196.172C196.172 19.1823 195.562 18.8384 194.874 18.8384C194.187 18.8384 193.641 19.1823 193.641 19.721C193.641 21.1746 197.749 20.0519 197.795 22.8553C197.795 24.3348 196.575 25.0616 194.952 25.0616C193.453 25.0616 192.11 24.244 192.11 22.7644" fill="#e7d0a5"/>
        <path d="M199.047 15.8209C199.048 15.6508 199.1 15.4848 199.195 15.3439C199.29 15.2029 199.425 15.0933 199.583 15.0288C199.74 14.9643 199.913 14.9478 200.08 14.9813C200.247 15.0148 200.4 15.0968 200.52 15.2171C200.641 15.3375 200.723 15.4906 200.756 15.6575C200.79 15.8243 200.773 15.9973 200.709 16.1547C200.644 16.3121 200.534 16.447 200.394 16.5423C200.253 16.6377 200.087 16.6892 199.917 16.6905C199.802 16.6922 199.688 16.6709 199.582 16.6279C199.475 16.5848 199.379 16.5208 199.298 16.4397C199.217 16.3586 199.153 16.262 199.11 16.1557C199.067 16.0495 199.045 15.9356 199.047 15.8209ZM199.203 17.6898H200.624V24.9449H199.222L199.203 17.6898Z" fill="#e7d0a5"/>
        <path d="M202.148 21.3174C202.147 20.8257 202.242 20.3386 202.429 19.884C202.617 19.4293 202.892 19.0162 203.239 18.6682C203.586 18.3203 203.999 18.0444 204.453 17.8564C204.908 17.6685 205.395 17.5722 205.886 17.573C206.638 17.5693 207.373 17.7972 207.99 18.2256C208.608 18.654 209.079 19.2622 209.339 19.9676H207.82C207.611 19.6524 207.326 19.3946 206.992 19.2178C206.657 19.041 206.284 18.9507 205.906 18.9553C205.279 18.9553 204.678 19.2041 204.235 19.6471C203.793 20.0901 203.544 20.6909 203.544 21.3174C203.544 21.9438 203.793 22.5446 204.235 22.9876C204.678 23.4306 205.279 23.6795 205.906 23.6795C206.275 23.6871 206.64 23.6027 206.969 23.4339C207.297 23.2651 207.579 23.0172 207.788 22.7126H209.339C209.074 23.4124 208.601 24.0142 207.984 24.4366C207.367 24.859 206.634 25.0817 205.886 25.0747C205.395 25.0755 204.909 24.9794 204.455 24.7919C204.001 24.6043 203.589 24.329 203.241 23.9818C202.894 23.6345 202.619 23.2221 202.431 22.7682C202.244 22.3144 202.148 21.8279 202.148 21.3368" fill="#e7d0a5"/>
        <path d="M154.62 35.4963C154.599 34.9928 154.68 34.4902 154.858 34.0188C155.036 33.5474 155.308 33.1169 155.657 32.7532C156.006 32.3895 156.424 32.1001 156.888 31.9024C157.352 31.7047 157.85 31.6028 158.354 31.6028C158.858 31.6028 159.357 31.7047 159.821 31.9024C160.284 32.1001 160.703 32.3895 161.052 32.7532C161.401 33.1169 161.672 33.5474 161.851 34.0188C162.029 34.4902 162.11 34.9928 162.089 35.4963V39.1238H160.668V37.9752C160.429 38.3761 160.087 38.7051 159.677 38.9278C159.267 39.1505 158.804 39.2586 158.338 39.2407C157.345 39.2407 156.393 38.8462 155.69 38.144C154.988 37.4418 154.594 36.4894 154.594 35.4963H154.62ZM160.655 35.4963C160.665 35.1882 160.613 34.8812 160.502 34.5937C160.391 34.3062 160.222 34.0442 160.007 33.8235C159.792 33.6028 159.534 33.428 159.25 33.3095C158.965 33.191 158.659 33.1314 158.351 33.1342C157.88 33.1213 157.415 33.2493 157.017 33.5019C156.619 33.7545 156.305 34.1201 156.116 34.552C155.927 34.9839 155.871 35.4624 155.956 35.9262C156.04 36.3901 156.261 36.8182 156.59 37.1557C156.92 37.4932 157.342 37.7248 157.804 37.8209C158.265 37.9169 158.745 37.873 159.181 37.6948C159.618 37.5166 159.991 37.2122 160.254 36.8205C160.516 36.4289 160.656 35.9678 160.655 35.4963Z" fill="#e7d0a5"/>
        <path d="M169.921 39.1239H168.5V35.3082C168.5 33.8286 167.851 33.1343 166.729 33.1343C165.606 33.1343 164.963 33.8286 164.963 35.3082V39.1239H163.529V35.3082C163.529 32.8747 164.827 31.7585 166.716 31.7585C168.604 31.7585 169.908 32.8747 169.908 35.3082L169.921 39.1239Z" fill="#e7d0a5"/>
        <path d="M175.043 39.2407C174.538 39.2617 174.035 39.1805 173.563 39.0019C173.09 38.8234 172.659 38.5512 172.295 38.2018C171.931 37.8523 171.641 37.4328 171.443 36.9684C171.245 36.504 171.143 36.0044 171.143 35.4996C171.143 34.9948 171.245 34.4951 171.443 34.0308C171.641 33.5664 171.931 33.1469 172.295 32.7974C172.659 32.448 173.09 32.1758 173.563 31.9972C174.035 31.8187 174.538 31.7375 175.043 31.7585C175.479 31.7494 175.911 31.8385 176.307 32.0194C176.704 32.2003 177.055 32.4682 177.333 32.8033V28.9746H178.768V35.4963C178.769 35.9869 178.674 36.473 178.488 36.9268C178.302 37.3805 178.028 37.7931 177.682 38.1409C177.336 38.4887 176.924 38.7648 176.472 38.9535C176.019 39.1422 175.533 39.2398 175.043 39.2407ZM172.72 35.4963C172.727 35.9541 172.87 36.3994 173.13 36.7762C173.39 37.1531 173.755 37.4448 174.18 37.6147C174.605 37.7846 175.071 37.8251 175.519 37.7311C175.967 37.6371 176.378 37.4128 176.699 37.0864C177.02 36.76 177.237 36.3461 177.324 35.8965C177.41 35.447 177.362 34.9819 177.185 34.5596C177.008 34.1374 176.71 33.7768 176.329 33.5232C175.948 33.2696 175.501 33.1343 175.043 33.1342C174.734 33.1315 174.427 33.1911 174.141 33.3093C173.856 33.4276 173.597 33.6021 173.38 33.8225C173.163 34.0429 172.993 34.3047 172.88 34.5923C172.766 34.8798 172.712 35.1873 172.72 35.4963Z" fill="#e7d0a5"/>
        <path d="M191.201 36.1973C191.215 36.5844 191.15 36.9704 191.009 37.3312C190.867 37.6919 190.654 38.0198 190.38 38.2943C190.107 38.5688 189.78 38.7842 189.42 38.9269C189.06 39.0697 188.674 39.1367 188.287 39.124H184.646V28.9683H187.606C189.371 28.9683 190.415 29.8833 190.415 31.3758C190.445 31.805 190.362 32.2345 190.174 32.6215C189.986 33.0086 189.7 33.3397 189.345 33.5821C189.89 33.7605 190.365 34.1086 190.699 34.5755C191.032 35.0425 191.208 35.6039 191.201 36.1779V36.1973ZM186.068 30.2596V32.9527H187.748C188.093 32.9201 188.412 32.7591 188.643 32.5018C188.874 32.2445 188.999 31.9097 188.994 31.564C189.009 31.3818 188.982 31.1987 188.916 31.0283C188.85 30.8578 188.747 30.7045 188.613 30.5797C188.48 30.455 188.32 30.3619 188.145 30.3076C187.971 30.2533 187.786 30.2391 187.606 30.2661L186.068 30.2596ZM189.78 35.9572C189.783 35.7455 189.742 35.5354 189.66 35.34C189.579 35.1446 189.458 34.9681 189.305 34.8214C189.152 34.6747 188.971 34.561 188.772 34.4874C188.574 34.4137 188.362 34.3817 188.151 34.3933H186.068V37.8326H188.268C188.489 37.8132 188.704 37.7498 188.9 37.6462C189.097 37.5426 189.27 37.4007 189.411 37.2291C189.552 37.0574 189.657 36.8594 189.72 36.6465C189.784 36.4337 189.804 36.2104 189.78 35.9897" fill="#e7d0a5"/>
        <path d="M192.505 35.4963C192.484 34.9928 192.565 34.4902 192.743 34.0188C192.922 33.5474 193.193 33.1169 193.542 32.7532C193.891 32.3895 194.31 32.1001 194.773 31.9024C195.237 31.7047 195.736 31.6028 196.24 31.6028C196.744 31.6028 197.243 31.7047 197.706 31.9024C198.17 32.1001 198.588 32.3895 198.937 32.7532C199.286 33.1169 199.558 33.5474 199.736 34.0188C199.914 34.4902 199.995 34.9928 199.974 35.4963V39.1238H198.573V37.9752C198.336 38.3721 197.998 38.6986 197.593 38.9211C197.188 39.1435 196.731 39.2538 196.269 39.2406C195.276 39.2406 194.324 38.8462 193.621 38.144C192.919 37.4418 192.525 36.4894 192.525 35.4963H192.505ZM198.586 35.4963C198.596 35.1882 198.544 34.8812 198.433 34.5937C198.322 34.3062 198.153 34.0442 197.938 33.8235C197.723 33.6028 197.465 33.428 197.181 33.3095C196.896 33.191 196.59 33.1314 196.282 33.1342C195.81 33.1187 195.345 33.2445 194.945 33.4954C194.545 33.7464 194.229 34.111 194.038 34.5426C193.847 34.9742 193.789 35.4531 193.872 35.9177C193.955 36.3824 194.175 36.8117 194.504 37.1505C194.832 37.4893 195.255 37.7223 195.717 37.8194C196.178 37.9166 196.659 37.8735 197.096 37.6957C197.533 37.518 197.908 37.2136 198.171 36.8218C198.434 36.4299 198.574 35.9683 198.573 35.4963" fill="#e7d0a5"/>
        <path d="M202.991 28.9682H201.57V39.1175H202.991V28.9682Z" fill="#e7d0a5"/>
        <path d="M206.152 28.9683H204.73V39.1175H206.152V28.9683Z" fill="#e7d0a5"/>
        <path d="M211.214 31.7585C212.188 31.7428 213.129 32.1136 213.831 32.7897C214.532 33.4659 214.938 34.3923 214.958 35.3665C214.958 35.5836 214.943 35.8004 214.913 36.0155H209.073C209.13 36.5403 209.385 37.0234 209.787 37.366C210.189 37.7085 210.706 37.8847 211.233 37.8584C211.558 37.8667 211.881 37.8063 212.181 37.681C212.48 37.5558 212.75 37.3685 212.973 37.1316H214.673C214.356 37.7598 213.871 38.2877 213.271 38.6566C212.672 39.0255 211.982 39.221 211.279 39.2212C210.313 39.1872 209.398 38.7812 208.725 38.0881C208.051 37.3949 207.672 36.4682 207.666 35.5019C207.66 34.5355 208.028 33.6044 208.693 32.9031C209.358 32.2018 210.268 31.7847 211.233 31.739L211.214 31.7585ZM213.453 34.8409C213.332 34.3533 213.054 33.9194 212.66 33.6071C212.267 33.2947 211.781 33.1216 211.279 33.1147C210.769 33.1074 210.273 33.2746 209.871 33.5887C209.47 33.9027 209.188 34.3445 209.073 34.8409H213.453Z" fill="#e7d0a5"/>
        <path d="M218.332 33.2511V35.6911C218.332 37.0733 218.87 37.7093 219.902 37.7936V39.1758C218.163 39.098 216.93 38.0402 216.911 35.7041V33.2511H215.84V31.8689H216.911V29.2732H218.332V31.8689H219.902V33.2511H218.332Z" fill="#e7d0a5"/>
        <path d="M28.0921 7.72874C26.2543 7.73008 24.4707 8.35204 23.0305 9.49383C22.5511 6.8155 21.1395 4.39316 19.0456 2.65561C16.9518 0.918051 14.3107 -0.0226579 11.5899 -2.25089e-06C8.55627 -0.0260746 5.63541 1.14838 3.46427 3.26725C1.29313 5.38612 0.0478519 8.27749 0 11.3108L0 39.2148H7.72875V11.3108C7.72875 10.2868 8.13554 9.30471 8.85965 8.5806C9.58375 7.8565 10.5658 7.44971 11.5899 7.44971C12.6139 7.44971 13.596 7.8565 14.3201 8.5806C15.0442 9.30471 15.451 10.2868 15.451 11.3108V39.2148H23.1798V18.8773C23.1798 16.9306 25.0552 15.3407 26.9371 15.3407C29.1434 15.3407 30.9085 16.9435 30.9085 18.8773V39.1888H38.6372V18.8773C38.6372 12.8034 34.3284 7.72874 28.0921 7.72874Z" fill="#e7d0a5"/>
        <path d="M99.0526 17.0668C99.9631 15.4876 100.446 13.6983 100.454 11.8754C100.465 10.395 100.184 8.92709 99.6262 7.55582C99.0683 6.18456 98.2451 4.937 97.2038 3.8848C96.1624 2.83259 94.9234 1.99648 93.558 1.42446C92.1926 0.852448 90.7277 0.555807 89.2473 0.551575H65.185V26.6061C65.1611 28.1064 64.543 29.5359 63.4663 30.5809C62.3896 31.626 60.9423 32.2012 59.442 32.1804C57.9294 32.2118 56.4659 31.643 55.3715 30.5984C54.2771 29.5539 53.6407 28.1185 53.6016 26.6061V0.551575H45.8145V26.379C45.8145 34.218 51.4472 39.682 59.442 39.682C67.3329 39.682 72.9072 34.218 72.9072 26.379V8.05969H88.9683C91.0708 8.05969 92.7255 10.0454 92.7255 12.2518C92.7412 12.7543 92.6556 13.2549 92.4736 13.7236C92.2917 14.1923 92.0172 14.6196 91.6665 14.9799C91.3159 15.3403 90.8962 15.6263 90.4327 15.8209C89.9691 16.0156 89.471 16.1149 88.9683 16.1129H80.636V39.1888H96.0935C98.821 39.1888 101.456 38.1987 103.508 36.4025C105.561 34.6062 106.891 32.126 107.253 29.4226C107.615 26.7192 106.983 23.9765 105.474 21.704C103.966 19.4315 101.684 17.7837 99.0526 17.0668ZM95.8729 31.6807H88.3647V23.621H95.8729C96.3798 23.6132 96.8829 23.7097 97.351 23.9044C97.819 24.0992 98.2421 24.3881 98.5938 24.7532C98.9455 25.1184 99.2185 25.5519 99.3956 26.0269C99.5728 26.5019 99.6504 27.0083 99.6237 27.5146C99.6237 29.7209 98.0208 31.6548 95.8729 31.6548" fill="#e7d0a5"/>
        <path d="M142.563 39.1888L129.039 0.551514H121.349L107.793 39.1888H116.015L118.059 32.8357C120.204 34.1386 122.665 34.8276 125.175 34.8276C127.684 34.8276 130.145 34.1386 132.29 32.8357L134.328 39.1888H142.563ZM125.178 27.3198C123.412 27.3093 121.72 26.611 120.46 25.3731L125.178 10.7267L129.921 25.4444C128.625 26.6287 126.933 27.286 125.178 27.2874" fill="#e7d0a5"/>
        <path d="M28.1895 7.93651C26.3413 7.94421 24.5502 8.57783 23.1084 9.73405C22.6341 7.04121 21.2204 4.60374 19.1186 2.85481C17.0168 1.10589 14.363 0.158779 11.6288 0.181807C8.58539 0.157439 5.6556 1.33656 3.47753 3.46236C1.29946 5.58817 0.0495437 8.48846 0 11.5316L0 39.5004H7.78715V11.5316C7.78715 10.4989 8.19737 9.50859 8.92755 8.77841C9.65774 8.04822 10.6481 7.638 11.6807 7.638C12.7134 7.638 13.7037 8.04822 14.4339 8.77841C15.1641 9.50859 15.5743 10.4989 15.5743 11.5316V39.5004H23.2576V19.1241C23.2576 17.1773 25.146 15.5744 27.0279 15.5744C29.2408 15.5744 31.0123 17.1838 31.0123 19.1241V39.5004H38.7995V19.1241C38.7995 13.0306 34.4776 7.93651 28.2219 7.93651" fill="#e7d0a5"/>
        <path d="M99.39 17.3071C100.301 15.7278 100.784 13.9385 100.792 12.1156C100.806 10.6288 100.527 9.15387 99.9686 7.77567C99.4107 6.39746 98.5857 5.14325 97.541 4.08528C96.4963 3.0273 95.2526 2.18647 93.8815 1.6112C92.5104 1.03594 91.0391 0.737607 89.5523 0.733398H65.4056V26.8723C65.3766 28.3743 64.7542 29.8038 63.6744 30.8483C62.5946 31.8928 61.1453 32.4674 59.6431 32.4466C58.1287 32.4727 56.6653 31.8996 55.5715 30.8519C54.4776 29.8043 53.8419 28.3669 53.8028 26.8528V0.733398H46.0156V26.6516C46.0156 34.5167 51.6613 40.0001 59.6886 40.0001C67.612 40.0001 73.2058 34.5167 73.2058 26.6516V8.26747H89.3187C91.4212 8.26747 93.0889 10.2597 93.0889 12.479C93.1064 12.9846 93.0217 13.4886 92.84 13.9608C92.6583 14.4329 92.3832 14.8636 92.0313 15.2271C91.6793 15.5905 91.2577 15.8793 90.7916 16.0761C90.3256 16.2729 89.8246 16.3738 89.3187 16.3726H80.915V39.5004H96.418C99.1518 39.4965 101.792 38.5015 103.848 36.6998C105.904 34.898 107.237 32.4119 107.6 29.7022C107.963 26.9925 107.331 24.2432 105.821 21.9639C104.311 19.6847 102.027 18.0301 99.39 17.3071ZM96.1973 31.9729H88.6632V23.8872H96.1973C96.7051 23.8785 97.2092 23.9743 97.6783 24.1686C98.1475 24.3629 98.5717 24.6516 98.9247 25.0167C99.2776 25.3818 99.5517 25.8156 99.73 26.2911C99.9083 26.7666 99.987 27.2736 99.9611 27.7808C99.9611 30.0001 98.3583 31.9404 96.1973 31.9404" fill="#e7d0a5"/>
        <path d="M143.049 39.5004L129.48 0.733398H121.725L108.156 39.5004H116.411L118.461 33.1279C120.613 34.4341 123.082 35.1248 125.599 35.1248C128.117 35.1248 130.586 34.4341 132.738 33.1279L134.788 39.5004H143.049ZM125.606 27.5926C123.834 27.5844 122.135 26.8861 120.869 25.6458L125.606 10.954L130.363 25.7237C129.061 26.9082 127.366 27.5653 125.606 27.5666" fill="#e7d0a5"/>
    </g>
    <defs>
        <clipPath id="clip0_5677_34978">
            <rect width="250" height="40" fill="white"/>
        </clipPath>
    </defs>
</svg>
