<svg width="250" height="40" viewBox="0 0 250 40" fill="none" xmlns="http://www.w3.org/2000/svg">
    <g clip-path="url(#clip0_5677_34979)">
        <path d="M162.801 2.00267H159.937V10.8481H158.507V2.00267H155.639V0.612793H162.801V2.00267Z" fill="#e7d0a5"/>
        <path d="M161.562 7.19361C161.562 6.19257 161.96 5.23253 162.668 4.52469C163.376 3.81685 164.336 3.41919 165.337 3.41919C166.338 3.41919 167.298 3.81685 168.006 4.52469C168.714 5.23253 169.111 6.19257 169.111 7.19361V10.8481H167.677V9.69361C167.439 10.0934 167.097 10.422 166.689 10.6453C166.281 10.8687 165.82 10.9786 165.355 10.9636C164.859 10.9642 164.369 10.8671 163.911 10.6778C163.454 10.4886 163.038 10.2109 162.688 9.8607C162.337 9.51051 162.06 9.09467 161.87 8.63701C161.681 8.17935 161.584 7.68886 161.585 7.19361H161.562ZM167.695 7.19361C167.695 6.57297 167.448 5.97774 167.009 5.53888C166.571 5.10002 165.975 4.85347 165.355 4.85347C164.734 4.85347 164.139 5.10002 163.7 5.53888C163.261 5.97774 163.015 6.57297 163.015 7.19361C163.009 7.5054 163.066 7.8151 163.182 8.10453C163.298 8.39396 163.471 8.65727 163.69 8.87901C163.91 9.10074 164.171 9.27642 164.459 9.39572C164.747 9.51502 165.056 9.57554 165.368 9.57372C165.678 9.57502 165.986 9.51395 166.272 9.39412C166.559 9.2743 166.818 9.09816 167.035 8.87617C167.252 8.65418 167.422 8.39086 167.536 8.10183C167.649 7.8128 167.703 7.50395 167.695 7.19361Z" fill="#e7d0a5"/>
        <path d="M172.132 0.612793H170.697V10.8481H172.132V0.612793Z" fill="#e7d0a5"/>
        <path d="M175.319 0.612793H173.885V10.8481H175.319V0.612793Z" fill="#e7d0a5"/>
        <path d="M177.074 1.65174C177.048 1.52276 177.051 1.38957 177.083 1.2618C177.114 1.13403 177.174 1.01489 177.257 0.912978C177.34 0.811071 177.445 0.728952 177.564 0.67256C177.683 0.616168 177.813 0.586914 177.945 0.586914C178.076 0.586914 178.206 0.616168 178.325 0.67256C178.444 0.728952 178.549 0.811071 178.632 0.912978C178.716 1.01489 178.775 1.13403 178.807 1.2618C178.838 1.38957 178.841 1.52276 178.815 1.65174C178.841 1.78073 178.838 1.91392 178.807 2.04169C178.775 2.16945 178.716 2.2886 178.632 2.39051C178.549 2.49241 178.444 2.57453 178.325 2.63093C178.206 2.68732 178.076 2.71657 177.945 2.71657C177.813 2.71657 177.683 2.68732 177.564 2.63093C177.445 2.57453 177.34 2.49241 177.257 2.39051C177.174 2.2886 177.114 2.16945 177.083 2.04169C177.051 1.91392 177.048 1.78073 177.074 1.65174ZM177.234 3.55228H178.669V10.848H177.234V3.55228Z" fill="#e7d0a5"/>
        <path d="M186.852 10.8481H185.422V7.00267C185.422 5.51066 184.778 4.80906 183.645 4.80906C182.513 4.80906 181.869 5.51066 181.869 7.00267V10.8481H180.439V7.00267C180.439 4.54708 181.772 3.41919 183.654 3.41919C185.537 3.41919 186.869 4.54708 186.869 7.00267L186.852 10.8481Z" fill="#e7d0a5"/>
        <path d="M194.893 10.8481H193.463V7.00267C193.463 5.51066 192.819 4.80906 191.687 4.80906C190.554 4.80906 189.91 5.51066 189.91 7.00267V10.8481H188.48V7.00267C188.48 4.54708 189.813 3.41919 191.695 3.41919C193.578 3.41919 194.91 4.54708 194.91 7.00267L194.893 10.8481Z" fill="#e7d0a5"/>
        <path d="M196.27 7.19361C196.27 6.19257 196.667 5.23253 197.375 4.52469C198.083 3.81685 199.043 3.41919 200.044 3.41919C201.045 3.41919 202.005 3.81685 202.713 4.52469C203.421 5.23253 203.818 6.19257 203.818 7.19361V10.8481H202.384V9.69361C202.145 10.0934 201.803 10.4219 201.394 10.6452C200.984 10.8685 200.523 10.9784 200.057 10.9636C199.561 10.9659 199.069 10.8701 198.609 10.6817C198.15 10.4933 197.732 10.216 197.38 9.86569C197.028 9.51538 196.749 9.09899 196.558 8.64044C196.368 8.18188 196.27 7.69019 196.27 7.19361ZM202.38 7.19361C202.39 6.88281 202.338 6.57303 202.226 6.28294C202.114 5.99285 201.944 5.72845 201.727 5.50566C201.51 5.28287 201.251 5.1063 200.964 4.98658C200.677 4.86686 200.368 4.80648 200.057 4.80907C199.745 4.80601 199.435 4.86583 199.146 4.98497C198.857 5.10412 198.595 5.28016 198.375 5.50261C198.156 5.72507 197.983 5.98941 197.868 6.27991C197.752 6.57041 197.697 6.88113 197.704 7.19361C197.69 7.50921 197.74 7.82432 197.852 8.11996C197.963 8.41559 198.133 8.68564 198.351 8.91382C198.57 9.142 198.832 9.3236 199.123 9.44765C199.413 9.57171 199.726 9.63567 200.042 9.63567C200.358 9.63567 200.67 9.57171 200.961 9.44765C201.251 9.3236 201.514 9.142 201.732 8.91382C201.951 8.68564 202.121 8.41559 202.232 8.11996C202.343 7.82432 202.393 7.50921 202.38 7.19361Z" fill="#e7d0a5"/>
        <path d="M166.371 14.9067V25.1421H164.937V18.1261L161.766 25.1421H160.536L157.366 18.1261V25.1421H155.932V14.9067H157.366L161.149 23.0817L164.937 14.9067H166.371Z" fill="#e7d0a5"/>
        <path d="M174.415 17.833V21.6785C174.415 24.1341 173.083 25.2575 171.195 25.2575C169.308 25.2575 167.98 24.1341 167.98 21.6785V17.833H169.415V21.6785C169.415 23.1705 170.059 23.8721 171.191 23.8721C172.323 23.8721 172.967 23.1705 172.967 21.6785V17.833H174.415Z" fill="#e7d0a5"/>
        <path d="M182.451 17.833V21.6785C182.451 24.1341 181.119 25.2575 179.236 25.2575C177.354 25.2575 176.021 24.1341 176.021 21.6785V17.833H177.456V21.6785C177.456 23.1705 178.095 23.8721 179.232 23.8721C180.369 23.8721 181.008 23.1705 181.008 21.6785V17.833H182.451Z" fill="#e7d0a5"/>
        <path d="M183.77 22.9484H185.142C185.142 23.579 185.799 23.9742 186.665 23.9742C187.531 23.9742 188.068 23.579 188.068 23.0062C188.068 21.3543 183.885 22.6154 183.885 19.7779C183.885 18.5479 185.084 17.7175 186.589 17.7175C188.095 17.7175 189.254 18.5035 189.254 19.9067H187.877C187.877 19.3383 187.264 18.9875 186.545 18.9875C185.826 18.9875 185.302 19.3383 185.302 19.8756C185.302 21.3365 189.44 20.2131 189.48 23.0328C189.48 24.5248 188.255 25.2531 186.616 25.2531C185.111 25.2531 183.752 24.4316 183.752 22.9396" fill="#e7d0a5"/>
        <path d="M190.817 15.9457C190.817 15.7701 190.869 15.5984 190.967 15.4523C191.064 15.3063 191.203 15.1924 191.365 15.1252C191.528 15.058 191.706 15.0404 191.878 15.0747C192.051 15.1089 192.209 15.1935 192.333 15.3177C192.457 15.4419 192.542 15.6002 192.576 15.7725C192.61 15.9447 192.593 16.1233 192.526 16.2856C192.458 16.4479 192.345 16.5866 192.199 16.6841C192.052 16.7817 191.881 16.8338 191.705 16.8338C191.587 16.8382 191.47 16.8182 191.36 16.7751C191.25 16.732 191.151 16.6667 191.067 16.5834C190.984 16.5 190.919 16.4004 190.876 16.2907C190.833 16.1809 190.813 16.0635 190.817 15.9457ZM190.977 17.8329H192.411V25.142H190.977V17.8329Z" fill="#e7d0a5"/>
        <path d="M194.307 14.9067H195.741V20.6083L198.592 17.833H200.421L197.61 20.6261L200.901 25.1421H199.307L196.633 21.532L195.741 22.3934V25.1421H194.307V14.9067Z" fill="#e7d0a5"/>
        <path d="M200.977 21.4875C200.959 20.9825 201.044 20.4791 201.225 20.0073C201.407 19.5356 201.681 19.1052 202.032 18.7417C202.383 18.3783 202.804 18.0892 203.269 17.8918C203.735 17.6944 204.235 17.5927 204.74 17.5927C205.246 17.5927 205.746 17.6944 206.211 17.8918C206.676 18.0892 207.097 18.3783 207.448 18.7417C207.799 19.1052 208.074 19.5356 208.255 20.0073C208.436 20.4791 208.521 20.9825 208.503 21.4875V25.1421H207.074V23.9787C206.834 24.379 206.493 24.7081 206.083 24.9322C205.674 25.1562 205.213 25.267 204.747 25.2531C203.747 25.2519 202.788 24.8537 202.081 24.146C201.374 23.4383 200.977 22.4789 200.977 21.4787V21.4875ZM207.087 21.4787C207.098 21.1679 207.046 20.8581 206.933 20.568C206.821 20.2779 206.652 20.0135 206.435 19.7907C206.218 19.5679 205.958 19.3913 205.671 19.2716C205.384 19.1519 205.076 19.0915 204.765 19.0941C204.291 19.0818 203.824 19.211 203.423 19.4654C203.023 19.7198 202.708 20.0878 202.518 20.5222C202.328 20.9567 202.271 21.438 202.356 21.9046C202.441 22.3712 202.663 22.8018 202.994 23.1416C203.325 23.4813 203.75 23.7147 204.214 23.8118C204.678 23.909 205.161 23.8655 205.6 23.687C206.039 23.5085 206.415 23.203 206.68 22.8097C206.945 22.4163 207.087 21.9529 207.087 21.4787Z" fill="#e7d0a5"/>
        <path d="M213.867 20.6528H209.893V22.0427H213.867V20.6528Z" fill="#e7d0a5"/>
        <path d="M217.043 26.6651C218.024 26.5629 218.522 25.9191 218.522 24.5869V17.8196H219.951V24.5869C219.951 26.896 218.753 27.9661 217.043 28.0683V26.6651ZM218.375 15.9457C218.375 15.7701 218.427 15.5984 218.525 15.4523C218.622 15.3063 218.761 15.1924 218.923 15.1252C219.086 15.058 219.264 15.0404 219.436 15.0747C219.609 15.1089 219.767 15.1935 219.891 15.3177C220.015 15.4419 220.1 15.6002 220.134 15.7725C220.169 15.9447 220.151 16.1233 220.084 16.2856C220.016 16.4479 219.903 16.5866 219.757 16.6841C219.611 16.7817 219.439 16.8338 219.263 16.8338C219.146 16.8375 219.028 16.8171 218.919 16.7737C218.81 16.7304 218.71 16.6651 218.627 16.5819C218.544 16.4987 218.479 16.3993 218.435 16.2899C218.392 16.1805 218.371 16.0633 218.375 15.9457Z" fill="#e7d0a5"/>
        <path d="M221.372 21.4876C221.372 20.4865 221.77 19.5265 222.478 18.8186C223.185 18.1108 224.146 17.7131 225.147 17.7131C226.148 17.7131 227.108 18.1108 227.815 18.8186C228.523 19.5265 228.921 20.4865 228.921 21.4876V25.1421H227.491V23.9787C227.25 24.3854 226.904 24.7194 226.489 24.9453C226.074 25.1712 225.605 25.2806 225.133 25.262C224.133 25.2608 223.174 24.8626 222.467 24.1549C221.76 23.4472 221.363 22.4878 221.363 21.4876H221.372ZM227.473 21.4876C227.485 21.1766 227.433 20.8665 227.322 20.5759C227.21 20.2854 227.041 20.0203 226.825 19.7968C226.608 19.5732 226.349 19.3957 226.062 19.275C225.775 19.1542 225.467 19.0927 225.155 19.0941C224.682 19.0827 224.215 19.2127 223.815 19.4676C223.416 19.7226 223.101 20.0909 222.912 20.5254C222.722 20.96 222.667 21.4412 222.752 21.9075C222.838 22.3738 223.06 22.804 223.391 23.1433C223.722 23.4826 224.147 23.7155 224.611 23.8123C225.075 23.9091 225.557 23.8654 225.996 23.6867C226.436 23.508 226.811 23.2026 227.076 22.8093C227.341 22.416 227.482 21.9527 227.482 21.4787" fill="#e7d0a5"/>
        <path d="M162.522 36.4831C162.537 36.8735 162.472 37.263 162.33 37.6271C162.188 37.9911 161.973 38.3221 161.697 38.5992C161.422 38.8763 161.092 39.0937 160.729 39.2377C160.366 39.3816 159.977 39.4492 159.586 39.4361H155.914V29.2229H158.898C160.674 29.2229 161.731 30.1421 161.731 31.6474C161.76 32.0794 161.676 32.5115 161.487 32.9009C161.297 33.2903 161.01 33.6235 160.652 33.8677C161.203 34.0462 161.681 34.3967 162.018 34.8674C162.354 35.3382 162.531 35.9045 162.522 36.4831ZM157.366 30.5195V33.2371H159.062C159.407 33.2005 159.725 33.0361 159.955 32.7764C160.184 32.5166 160.308 32.1804 160.301 31.8339C160.301 31.0879 159.906 30.5018 158.898 30.5018L157.366 30.5195ZM161.109 36.2655C161.116 36.0499 161.079 35.8351 160.998 35.6348C160.918 35.4345 160.797 35.2531 160.643 35.102C160.489 34.9509 160.305 34.8334 160.104 34.757C159.902 34.6806 159.686 34.6469 159.471 34.6581H157.366V38.1217H159.586C160.474 38.1217 161.109 37.3046 161.109 36.2655Z" fill="#e7d0a5"/>
        <path d="M163.783 35.7815C163.783 34.7805 164.181 33.8204 164.889 33.1126C165.597 32.4047 166.557 32.0071 167.558 32.0071C168.559 32.0071 169.519 32.4047 170.227 33.1126C170.934 33.8204 171.332 34.7805 171.332 35.7815V39.436H169.898V38.2815C169.659 38.6824 169.317 39.0121 168.908 39.2362C168.499 39.4604 168.037 39.5708 167.571 39.5559C166.571 39.5547 165.612 39.1566 164.905 38.4488C164.198 37.7411 163.801 36.7818 163.801 35.7815H163.783ZM169.911 35.7815C169.921 35.4711 169.869 35.1618 169.756 34.8722C169.644 34.5826 169.474 34.3188 169.257 34.0964C169.04 33.8741 168.781 33.698 168.494 33.5785C168.207 33.4591 167.899 33.3988 167.589 33.4014C167.114 33.389 166.647 33.5184 166.247 33.773C165.847 34.0276 165.531 34.3958 165.341 34.8305C165.151 35.2653 165.096 35.7468 165.181 36.2135C165.266 36.6802 165.489 37.1109 165.82 37.4504C166.151 37.79 166.576 38.023 167.041 38.1197C167.505 38.2163 167.988 38.1722 168.427 37.993C168.866 37.8138 169.242 37.5077 169.507 37.1137C169.771 36.7198 169.912 36.2559 169.911 35.7815Z" fill="#e7d0a5"/>
        <path d="M174.356 29.2051H172.922V39.4405H174.356V29.2051Z" fill="#e7d0a5"/>
        <path d="M177.544 29.2051H176.109V39.4404H177.544V29.2051Z" fill="#e7d0a5"/>
        <path d="M182.647 32.0115C183.63 31.9949 184.579 32.3691 185.286 33.0518C185.993 33.7346 186.4 34.6701 186.417 35.6527C186.42 35.8726 186.405 36.0924 186.373 36.3099H180.467C180.52 36.843 180.776 37.3353 181.181 37.685C181.587 38.0346 182.112 38.2148 182.647 38.1882C182.974 38.1987 183.3 38.1387 183.602 38.0123C183.903 37.8858 184.175 37.696 184.397 37.4556H186.111C185.79 38.0887 185.301 38.6205 184.697 38.9921C184.092 39.3637 183.397 39.5604 182.687 39.5604C181.686 39.5657 180.724 39.1731 180.012 38.469C179.301 37.7649 178.898 36.807 178.893 35.8059C178.887 34.8049 179.28 33.8427 179.984 33.1312C180.688 32.4196 181.646 32.0168 182.647 32.0115ZM184.867 35.1199C184.744 34.6292 184.462 34.193 184.066 33.879C183.669 33.565 183.18 33.3909 182.674 33.3836C182.162 33.3779 181.663 33.5468 181.259 33.8623C180.856 34.1779 180.571 34.6214 180.453 35.1199H184.867Z" fill="#e7d0a5"/>
        <path d="M189.609 33.5168V35.968C189.609 37.3578 190.151 38.0017 191.19 38.0861V39.476C189.414 39.4049 188.193 38.3347 188.179 35.9813V33.5168H187.096V32.1269H188.179V29.5115H189.609V32.1269H191.19V33.5168H189.609Z" fill="#e7d0a5"/>
        <path d="M192.379 30.2397C192.379 30.064 192.431 29.8923 192.529 29.7463C192.627 29.6002 192.765 29.4864 192.928 29.4192C193.09 29.3519 193.268 29.3344 193.441 29.3686C193.613 29.4029 193.771 29.4875 193.895 29.6117C194.02 29.7359 194.104 29.8941 194.138 30.0664C194.173 30.2387 194.155 30.4172 194.088 30.5795C194.021 30.7418 193.907 30.8805 193.761 30.9781C193.615 31.0757 193.443 31.1278 193.267 31.1278C193.15 31.1315 193.033 31.111 192.923 31.0677C192.814 31.0244 192.714 30.9591 192.631 30.8759C192.548 30.7927 192.483 30.6933 192.439 30.5838C192.396 30.4744 192.376 30.3573 192.379 30.2397ZM192.539 32.1269H193.973V39.4359H192.539V32.1269Z" fill="#e7d0a5"/>
        <path d="M195.875 29.2051H197.305V34.9067L200.156 32.1269H201.985L199.179 34.92L202.465 39.436H200.875L198.197 35.8259L197.305 36.6873V39.436H195.875V29.2051Z" fill="#e7d0a5"/>
        <path d="M210.084 35.7815C210.085 36.5282 209.864 37.2584 209.45 37.8796C209.036 38.5009 208.447 38.9854 207.757 39.2717C207.067 39.5581 206.308 39.6335 205.576 39.4884C204.843 39.3432 204.171 38.9841 203.642 38.4564C203.114 37.9287 202.754 37.2562 202.608 36.5239C202.462 35.7916 202.536 35.0325 202.822 34.3425C203.108 33.6526 203.591 33.0628 204.212 32.6479C204.833 32.233 205.563 32.0115 206.31 32.0115C206.805 32.0103 207.296 32.107 207.754 32.296C208.213 32.485 208.629 32.7626 208.98 33.1128C209.33 33.4631 209.608 33.8791 209.798 34.337C209.987 34.795 210.085 35.2859 210.084 35.7815ZM203.974 35.7815C203.96 36.0971 204.01 36.4122 204.122 36.7078C204.233 37.0035 204.403 37.2735 204.621 37.5017C204.84 37.7299 205.102 37.9115 205.393 38.0355C205.683 38.1596 205.996 38.2235 206.312 38.2235C206.628 38.2235 206.94 38.1596 207.231 38.0355C207.521 37.9115 207.784 37.7299 208.002 37.5017C208.221 37.2735 208.391 37.0035 208.502 36.7078C208.613 36.4122 208.663 36.0971 208.65 35.7815C208.66 35.471 208.607 35.1617 208.495 34.8722C208.382 34.5826 208.213 34.3187 207.996 34.0964C207.779 33.8741 207.519 33.6979 207.233 33.5785C206.946 33.4591 206.638 33.3988 206.327 33.4014C206.015 33.3983 205.706 33.458 205.417 33.5769C205.128 33.6957 204.866 33.8714 204.647 34.0934C204.427 34.3154 204.255 34.5792 204.139 34.8691C204.024 35.1591 203.967 35.4694 203.974 35.7815Z" fill="#e7d0a5"/>
        <path d="M218.943 35.7815C218.944 36.5284 218.724 37.2587 218.309 37.8801C217.895 38.5015 217.305 38.9859 216.615 39.2722C215.926 39.5584 215.166 39.6335 214.434 39.488C213.701 39.3425 213.028 38.983 212.5 38.4548C211.972 37.9267 211.612 37.2538 211.467 36.5212C211.321 35.7886 211.396 35.0293 211.683 34.3394C211.969 33.6496 212.453 33.0601 213.075 32.6457C213.696 32.2313 214.427 32.0106 215.173 32.0115C215.669 32.0103 216.16 32.107 216.618 32.2961C217.075 32.4851 217.491 32.7628 217.842 33.1131C218.192 33.4634 218.47 33.8795 218.659 34.3374C218.848 34.7953 218.945 35.2861 218.943 35.7815ZM212.833 35.7815C212.824 36.0955 212.879 36.4081 212.993 36.7006C213.108 36.9931 213.28 37.2596 213.499 37.4842C213.719 37.7088 213.982 37.8869 214.271 38.0078C214.561 38.1288 214.873 38.1901 215.187 38.1882C215.66 38.1944 216.124 38.0598 216.52 37.8016C216.916 37.5433 217.227 37.1731 217.412 36.7379C217.597 36.3028 217.649 35.8224 217.56 35.3578C217.472 34.8932 217.247 34.4654 216.915 34.1288C216.583 33.7922 216.158 33.562 215.695 33.4675C215.231 33.3729 214.75 33.4183 214.313 33.5978C213.875 33.7774 213.501 34.0829 213.237 34.4757C212.974 34.8685 212.833 35.3307 212.833 35.8037" fill="#e7d0a5"/>
        <path d="M221.768 29.2051H220.334V39.4404H221.768V29.2051Z" fill="#e7d0a5"/>
        <path d="M28.3171 7.78862C26.4647 7.78818 24.6666 8.41416 23.2149 9.56482C22.7308 6.86593 21.3075 4.42529 19.197 2.6748C17.0865 0.924314 14.4248 -0.0231789 11.6829 -1.22736e-05C5.28419 -1.22736e-05 0 5.11988 0 11.4032V39.5204H7.78863V11.4032C7.78863 10.3703 8.19893 9.37981 8.92925 8.64949C9.65958 7.91916 10.6501 7.50887 11.6829 7.50887C12.7158 7.50887 13.7063 7.91916 14.4366 8.64949C15.167 9.37981 15.5773 10.3703 15.5773 11.4032V39.5204H23.3659V19.0275C23.3659 17.0781 25.2575 15.4751 27.1492 15.4751C29.3694 15.4751 31.1456 17.087 31.1456 19.0275V39.5204H38.9432V19.0275C38.9432 12.9085 34.6048 7.78862 28.3171 7.78862Z" fill="#e7d0a5"/>
        <path d="M99.8495 17.2026C100.762 15.6071 101.243 13.801 101.244 11.9628C101.254 10.4726 100.971 8.99501 100.409 7.61461C99.8477 6.23422 99.0194 4.97819 97.9716 3.91848C96.9239 2.85876 95.6773 2.0162 94.3034 1.43907C92.9295 0.861931 91.4552 0.561564 89.9649 0.555176H65.7198V26.8163C65.6953 28.3258 65.0744 29.7643 63.9928 30.8176C62.9112 31.8709 61.4568 32.4534 59.9472 32.4379C56.6657 32.4379 54.0502 29.8758 54.0502 26.8163V0.555176H46.1816V26.5943C46.1816 34.4939 51.8566 40.0001 59.9472 40.0001C67.9046 40.0001 73.5218 34.4939 73.5218 26.5943V8.12178H89.6985C91.8122 8.12178 93.4818 10.1244 93.4818 12.3536C93.4973 12.8598 93.4108 13.364 93.2276 13.8362C93.0444 14.3084 92.7681 14.7389 92.4151 15.1022C92.0622 15.4655 91.6399 15.7541 91.1732 15.9509C90.7065 16.1477 90.205 16.2487 89.6985 16.2479H81.2838V39.5205H96.861C99.6106 39.5213 102.267 38.5239 104.337 36.7136C106.406 34.9034 107.748 32.4034 108.114 29.6782C108.479 26.9529 107.842 24.1878 106.322 21.8965C104.802 19.6052 102.502 17.9436 99.8495 17.2204V17.2026ZM96.639 31.9539H89.0902V23.8145H96.639C98.8104 23.8145 100.422 25.4264 100.422 27.7621C100.422 29.9824 98.8104 31.9362 96.639 31.9362" fill="#e7d0a5"/>
        <path d="M143.708 39.5205L130.075 0.555176H122.287L108.654 39.5205H116.945L119.005 33.0996C121.167 34.4125 123.647 35.1068 126.176 35.1068C128.706 35.1068 131.186 34.4125 133.348 33.0996L135.435 39.5205H143.708ZM126.181 27.5312C124.404 27.5286 122.697 26.836 121.421 25.5996L126.181 10.8394L130.963 25.6751C129.656 26.8678 127.951 27.5297 126.181 27.5312Z" fill="#e7d0a5"/>
    </g>
    <defs>
        <clipPath id="clip0_5677_34979">
            <rect width="250" height="40" fill="white"/>
        </clipPath>
    </defs>
</svg>
